<svg width="132" height="32" viewBox="0 0 132 32" fill="none" xmlns="http://www.w3.org/2000/svg">
<path d="M17.7171 8.35228C17.7161 7.28083 17.2947 6.25353 16.5452 5.4959C15.7958 4.73826 14.7796 4.3122 13.7198 4.31122H6.10218C4.59584 4.31285 3.14332 4.87769 2.0242 5.89702C0.905083 6.91634 0.19845 8.31811 0.0403166 9.83253C-0.0219127 10.5208 0.00737304 14.9727 0.00737304 14.9727C0.010783 15.5092 0.119654 16.0397 0.32766 16.5333C0.535665 17.0269 0.838654 17.4738 1.21901 17.848C1.424 18.0553 10.2276 23.695 10.2276 23.695C10.2742 23.7258 10.3282 23.7433 10.3838 23.7455C10.4394 23.7478 10.4946 23.7347 10.5434 23.7077C10.5922 23.6808 10.6329 23.6409 10.6611 23.5924C10.6893 23.5439 10.704 23.4885 10.7035 23.4323V19.9241C10.703 19.8365 10.681 19.7504 10.6394 19.6736C10.5979 19.5967 10.5382 19.5315 10.4656 19.4837L3.7814 15.1725C3.73447 15.1437 3.69674 15.1019 3.67272 15.052C3.6487 15.0022 3.63941 14.9463 3.64596 14.8913V10.469C3.64789 9.81141 3.90741 9.18134 4.36772 8.71668C4.82804 8.25202 5.45168 7.9906 6.10218 7.98962H13.7198C13.8169 7.98962 13.91 8.02861 13.9786 8.09801C14.0473 8.16741 14.0858 8.26154 14.0858 8.35969V24.1317C14.0918 24.1864 14.0795 24.2415 14.051 24.2884C14.0225 24.3353 13.9794 24.3713 13.9284 24.3907L9.55408 26.9811C9.47626 27.0274 9.41171 27.0934 9.36678 27.1726C9.32185 27.2517 9.29809 27.3414 9.29784 27.4326V30.4819C9.29773 30.5738 9.32158 30.664 9.367 30.7435C9.41243 30.823 9.47781 30.889 9.55654 30.9348C9.63527 30.9806 9.72456 31.0046 9.8154 31.0044C9.90624 31.0041 9.9954 30.9796 10.0739 30.9334L16.187 27.3179C16.3038 27.253 16.4121 27.1735 16.5091 27.0811C16.894 26.7078 17.2 26.2596 17.4089 25.7635C17.6178 25.2675 17.7251 24.7337 17.7244 24.1946L17.7171 8.35228Z" fill="white"/>
<path d="M122.145 23.8541H119.535C119.398 23.8541 119.267 23.7992 119.17 23.7013C119.073 23.6035 119.019 23.4707 119.019 23.3323V12.3637C119.014 11.3736 119.378 10.418 120.04 9.6882C120.227 9.49976 120.433 9.33226 120.655 9.18862L130.253 3.10482C130.332 3.06532 130.42 3.04675 130.508 3.05081C130.596 3.05488 130.681 3.08146 130.756 3.12806C130.831 3.17467 130.893 3.23977 130.937 3.31726C130.98 3.39475 131.003 3.4821 131.004 3.5711V6.53158C131.003 6.6279 130.976 6.7222 130.926 6.80391C130.876 6.88562 130.804 6.95151 130.718 6.99416L122.727 12.249C122.706 12.2592 122.688 12.2754 122.675 12.2958C122.663 12.3162 122.657 12.3398 122.658 12.3637V23.3323C122.658 23.4707 122.603 23.6035 122.507 23.7013C122.41 23.7992 122.278 23.8541 122.142 23.8541" fill="white"/>
<path d="M112.697 4.31122H101.525C101.389 4.31122 101.258 4.36568 101.162 4.46274C101.065 4.55979 101.01 4.69156 101.009 4.8293V7.47894C101.009 7.61733 101.064 7.75005 101.16 7.8479C101.257 7.94575 101.388 8.00073 101.525 8.00073H112.697C112.794 8.00073 112.887 8.03972 112.956 8.10911C113.025 8.17851 113.063 8.27264 113.063 8.37079V17.8406C113.063 18.1468 113.004 18.45 112.888 18.7328C112.772 19.0157 112.602 19.2727 112.388 19.4892C112.174 19.7057 111.919 19.8774 111.64 19.9946C111.36 20.1117 111.06 20.172 110.757 20.172H102.982C102.885 20.172 102.792 20.133 102.723 20.0636C102.655 19.9942 102.616 19.9001 102.616 19.802V18.3217C102.616 18.2514 102.616 18.2292 102.697 18.1848L109.399 14.4842C109.48 14.439 109.548 14.3725 109.595 14.2918C109.642 14.2111 109.667 14.119 109.666 14.0253V11.0241C109.666 10.9338 109.643 10.8451 109.599 10.7665C109.555 10.688 109.491 10.6224 109.415 10.5762C109.338 10.5299 109.25 10.5046 109.161 10.5027C109.072 10.5008 108.984 10.5223 108.905 10.5652L100.559 15.1651C100.408 15.2515 100.269 15.3572 100.145 15.4797C99.7744 15.8511 99.4803 16.2932 99.2798 16.7804C99.0794 17.2677 98.9766 17.7903 98.9775 18.318V20.8899C98.9833 21.6713 99.2944 22.4186 99.843 22.969C100.392 23.5194 101.133 23.8282 101.906 23.8282H110.732C112.308 23.8331 113.821 23.2052 114.939 22.0824C116.057 20.9596 116.689 19.4339 116.695 17.8406V8.35228C116.695 7.82147 116.592 7.29576 116.391 6.80526C116.191 6.31475 115.896 5.86908 115.525 5.49374C115.154 5.11839 114.713 4.82074 114.228 4.61783C113.742 4.41492 113.222 4.31073 112.697 4.31122Z" fill="white"/>
<path d="M94.907 4.3112H86.0814C84.5048 4.3112 82.9927 4.94437 81.8779 6.07142C80.763 7.19847 80.1367 8.72709 80.1367 10.321V17.8406C80.1367 18.6298 80.2905 19.4113 80.5892 20.1405C80.888 20.8696 81.3259 21.5321 81.8779 22.0902C82.4299 22.6482 83.0852 23.0909 83.8065 23.3929C84.5277 23.695 85.3008 23.8504 86.0814 23.8504H95.306C95.4429 23.8504 95.5742 23.7954 95.671 23.6976C95.7678 23.5997 95.8221 23.467 95.8221 23.3286V20.6938C95.8221 20.5554 95.7678 20.4227 95.671 20.3248C95.5742 20.227 95.4429 20.172 95.306 20.172H86.0814C85.7786 20.172 85.4787 20.1117 85.1989 19.9945C84.9191 19.8774 84.6649 19.7056 84.4508 19.4892C84.2366 19.2727 84.0667 19.0157 83.9508 18.7328C83.8349 18.4499 83.7753 18.1468 83.7753 17.8406V10.321C83.7753 9.70266 84.0183 9.10966 84.4508 8.67244C84.8832 8.23523 85.4698 7.9896 86.0814 7.9896H93.8491C93.9462 7.9896 94.0393 8.02859 94.1079 8.09799C94.1766 8.16739 94.2152 8.26152 94.2152 8.35966V9.83991C94.2152 9.91022 94.2152 9.92872 94.1346 9.97683L87.4322 13.6774C87.3513 13.722 87.2838 13.7878 87.2367 13.8679C87.1897 13.948 87.1649 14.0395 87.1649 14.1326V17.1005C87.165 17.1908 87.1882 17.2796 87.2324 17.3581C87.2765 17.4366 87.3401 17.5022 87.4168 17.5484C87.4935 17.5947 87.5808 17.62 87.6702 17.6219C87.7595 17.6238 87.8477 17.6023 87.9263 17.5594L96.2687 12.9558C96.4219 12.873 96.5624 12.7683 96.686 12.645C97.0568 12.2736 97.351 11.8314 97.5515 11.3442C97.7519 10.8569 97.8547 10.3343 97.8537 9.8066V7.21617C97.8479 6.43486 97.5369 5.68754 96.9883 5.13713C96.4397 4.58673 95.6982 4.27787 94.9253 4.27789" fill="white"/>
<path d="M77.8086 13.1927C77.8049 12.656 77.6963 12.1253 77.489 11.6312C77.2817 11.1371 76.9798 10.6893 76.6006 10.3136C76.3956 10.1064 67.5883 4.47034 67.5883 4.47034C67.5418 4.43952 67.4878 4.42207 67.4322 4.41983C67.3766 4.41759 67.3214 4.43064 67.2726 4.45761C67.2237 4.48458 67.183 4.52445 67.1548 4.57296C67.1266 4.62148 67.112 4.67682 67.1125 4.73308V8.24126C67.1123 8.32888 67.1344 8.41508 67.1768 8.49155C67.2191 8.56803 67.2801 8.63222 67.3541 8.67793L74.0419 12.9928C74.0885 13.021 74.1261 13.0622 74.1501 13.1114C74.1742 13.1606 74.1836 13.2158 74.1773 13.2704V17.6926C74.1764 18.3502 73.9178 18.9807 73.4582 19.4461C72.9985 19.9114 72.3753 20.1738 71.7248 20.1757H64.0962C63.9991 20.1757 63.906 20.1367 63.8373 20.0673C63.7687 19.9979 63.7301 19.9038 63.7301 19.8057V0.521787C63.7301 0.383401 63.6757 0.250681 63.5789 0.152827C63.4822 0.0549736 63.3509 0 63.214 0H60.6077C60.4708 0 60.3395 0.0549736 60.2427 0.152827C60.1459 0.250681 60.0916 0.383401 60.0916 0.521787V19.8131C60.0925 20.8845 60.514 21.9118 61.2634 22.6694C62.0128 23.4271 63.029 23.8531 64.0889 23.8541H71.7101C73.2158 23.8516 74.6675 23.2863 75.7858 22.2671C76.9042 21.2479 77.6103 19.8466 77.7683 18.3328C77.8306 17.6445 77.8013 13.1927 77.8013 13.1927" fill="white"/>
<path d="M34.8008 4.3112H25.9789C24.4023 4.3112 22.8902 4.94437 21.7754 6.07142C20.6605 7.19847 20.0342 8.72709 20.0342 10.321V17.8406C20.0342 18.6298 20.1879 19.4113 20.4867 20.1405C20.7854 20.8696 21.2233 21.5321 21.7754 22.0902C22.3274 22.6482 22.9827 23.0909 23.704 23.3929C24.4252 23.695 25.1982 23.8504 25.9789 23.8504H35.2035C35.3404 23.8504 35.4717 23.7954 35.5685 23.6976C35.6653 23.5997 35.7196 23.467 35.7196 23.3286V20.6938C35.7196 20.5554 35.6653 20.4227 35.5685 20.3248C35.4717 20.227 35.3404 20.172 35.2035 20.172H25.9789C25.6761 20.172 25.3762 20.1117 25.0964 19.9945C24.8166 19.8774 24.5624 19.7056 24.3482 19.4892C24.1341 19.2727 23.9642 19.0157 23.8483 18.7328C23.7324 18.4499 23.6728 18.1468 23.6728 17.8406V10.321C23.6728 9.70266 23.9157 9.10966 24.3482 8.67244C24.7807 8.23523 25.3673 7.9896 25.9789 7.9896H33.7466C33.8437 7.9896 33.9368 8.02859 34.0054 8.09799C34.0741 8.16739 34.1127 8.26152 34.1127 8.35966V9.83991C34.1127 9.91022 34.1127 9.92872 34.0321 9.97683L27.3297 13.6774C27.2488 13.722 27.1812 13.7878 27.1342 13.8679C27.0872 13.948 27.0624 14.0395 27.0624 14.1326V17.1005C27.0625 17.1908 27.0857 17.2796 27.1299 17.3581C27.174 17.4366 27.2375 17.5022 27.3143 17.5484C27.391 17.5947 27.4783 17.62 27.5676 17.6219C27.6569 17.6238 27.7452 17.6023 27.8238 17.5594L36.1662 12.9558C36.3188 12.8739 36.4583 12.7691 36.5799 12.645C36.9512 12.2738 37.2459 11.8317 37.447 11.3445C37.6481 10.8573 37.7515 10.3345 37.7512 9.8066V7.21617C37.7454 6.43486 37.4343 5.68754 36.8858 5.13713C36.3372 4.58673 35.5957 4.27787 34.8228 4.27789" fill="white"/>
<path d="M46.0168 7.98962C45.4051 7.98962 44.8185 8.23525 44.3861 8.67247C43.9536 9.10969 43.7106 9.70268 43.7106 10.321V19.8131C43.7106 19.9112 43.7492 20.0053 43.8178 20.0747C43.8865 20.1441 43.9796 20.1831 44.0767 20.1831H51.8443C52.4557 20.1822 53.0417 19.9362 53.474 19.4992C53.9062 19.0622 54.1495 18.4698 54.1505 17.8517V8.34858C54.1505 8.25044 54.1119 8.15631 54.0433 8.08691C53.9746 8.01751 53.8815 7.97852 53.7844 7.97852L46.0168 7.98962ZM51.8334 23.8541H44.0657C43.0058 23.8532 41.9897 23.4271 41.2402 22.6694C40.4908 21.9118 40.0693 20.8845 40.0684 19.8131V10.321C40.0703 8.72707 40.6977 7.19904 41.813 6.0723C42.9282 4.94556 44.4401 4.3122 46.0168 4.31122H53.7844C54.8437 4.3122 55.8593 4.73775 56.6086 5.49459C57.3579 6.25142 57.7798 7.27777 57.7818 8.34858V17.8406C57.7789 19.4343 57.1511 20.9617 56.0361 22.0883C54.9211 23.2148 53.4097 23.8485 51.8334 23.8504" fill="white"/>
</svg>
