<svg width="23" height="19" viewBox="0 0 23 19" fill="none" xmlns="http://www.w3.org/2000/svg">
<path d="M9.23266 18.7194L-4.17304e-07 9.54681L9.23266 0.37427C9.31605 0.266048 9.42198 0.176795 9.5433 0.112556C9.66462 0.048316 9.79849 0.0105887 9.93584 0.00192731C10.0732 -0.00673404 10.2108 0.0138734 10.3394 0.0623538C10.468 0.110834 10.5846 0.186056 10.6812 0.282927C10.7778 0.379798 10.8522 0.496056 10.8995 0.623831C10.9467 0.751606 10.9656 0.887915 10.9548 1.02353C10.9441 1.15914 10.904 1.2909 10.8373 1.40987C10.7706 1.52885 10.6788 1.63226 10.5681 1.71312L3.6604 8.59727L22.0393 8.59727C22.2941 8.59727 22.5384 8.69731 22.7186 8.87539C22.8988 9.05346 23 9.29498 23 9.54681C23 9.79865 22.8988 10.0402 22.7186 10.2182C22.5384 10.3963 22.2941 10.4964 22.0393 10.4964L3.6604 10.4963L10.5681 17.3805C10.7477 17.5593 10.8481 17.8013 10.8472 18.0533C10.8463 18.3053 10.7442 18.5466 10.5633 18.7241C10.3824 18.9016 10.1375 19.0009 9.88257 19C9.62762 18.9991 9.38348 18.8982 9.20384 18.7194L9.23266 18.7194Z" fill="white"/>
</svg>
