<svg width="19" height="23" viewBox="0 0 19 23" fill="none" xmlns="http://www.w3.org/2000/svg">
<path d="M0.280648 9.23267L9.45319 8.34609e-07L18.6257 9.23266C18.734 9.31605 18.8232 9.42198 18.8874 9.5433C18.9517 9.66462 18.9894 9.79849 18.9981 9.93584C19.0067 10.0732 18.9861 10.2108 18.9376 10.3394C18.8892 10.468 18.8139 10.5846 18.7171 10.6812C18.6202 10.7778 18.5039 10.8522 18.3762 10.8995C18.2484 10.9467 18.1121 10.9656 17.9765 10.9548C17.8409 10.9441 17.7091 10.904 17.5901 10.8373C17.4712 10.7706 17.3677 10.6788 17.2869 10.5681L10.4027 3.6604L10.4027 22.0393C10.4027 22.2941 10.3027 22.5384 10.1246 22.7186C9.94654 22.8988 9.70502 23 9.45319 23C9.20136 23 8.95984 22.8988 8.78177 22.7186C8.60369 22.5384 8.50365 22.2941 8.50365 22.0393L8.50365 3.6604L1.6195 10.5681C1.4407 10.7477 1.19869 10.8481 0.946715 10.8472C0.694741 10.8463 0.453443 10.7442 0.275899 10.5633C0.0983572 10.3824 -0.000884124 10.1375 6.58601e-06 9.88257C0.000895388 9.62763 0.101848 9.38348 0.280648 9.20384L0.280648 9.23267Z" fill="white"/>
</svg>
