<svg width="19" height="23" viewBox="0 0 19 23" fill="none" xmlns="http://www.w3.org/2000/svg">
<path d="M18.7194 13.7673L9.54681 23L0.374269 13.7673C0.266047 13.684 0.176795 13.578 0.112555 13.4567C0.0483156 13.3354 0.0105882 13.2015 0.00192688 13.0642C-0.00673448 12.9268 0.0138729 12.7892 0.0623534 12.6606C0.110834 12.532 0.186055 12.4154 0.282926 12.3188C0.379797 12.2222 0.496056 12.1478 0.623831 12.1005C0.751606 12.0533 0.887915 12.0344 1.02353 12.0452C1.15914 12.0559 1.2909 12.096 1.40987 12.1627C1.52885 12.2294 1.63226 12.3212 1.71312 12.4319L8.59727 19.3396V0.960735C8.59727 0.705933 8.69731 0.461567 8.87539 0.281395C9.05346 0.101221 9.29498 0 9.54681 0C9.79864 0 10.0402 0.101221 10.2182 0.281395C10.3963 0.461567 10.4963 0.705933 10.4963 0.960735V19.3396L17.3805 12.4319C17.5593 12.2523 17.8013 12.1519 18.0533 12.1528C18.3053 12.1537 18.5466 12.2558 18.7241 12.4367C18.9016 12.6176 19.0009 12.8625 19 13.1174C18.9991 13.3724 18.8982 13.6165 18.7194 13.7962V13.7673Z" fill="white"/>
</svg>
