<svg width="23" height="19" viewBox="0 0 23 19" fill="none" xmlns="http://www.w3.org/2000/svg">
<path d="M13.7673 0.280648L23 9.45319L13.7673 18.6257C13.684 18.734 13.578 18.8232 13.4567 18.8874C13.3354 18.9517 13.2015 18.9894 13.0642 18.9981C12.9268 19.0067 12.7892 18.9861 12.6606 18.9376C12.532 18.8892 12.4154 18.8139 12.3188 18.7171C12.2222 18.6202 12.1478 18.5039 12.1005 18.3762C12.0533 18.2484 12.0344 18.1121 12.0452 17.9765C12.0559 17.8409 12.096 17.7091 12.1627 17.5901C12.2294 17.4712 12.3212 17.3677 12.4319 17.2869L19.3396 10.4027L0.960735 10.4027C0.705932 10.4027 0.461567 10.3027 0.281395 10.1246C0.101221 9.94654 -4.06296e-07 9.70502 -4.17304e-07 9.45319C-4.28312e-07 9.20136 0.101221 8.95984 0.281395 8.78176C0.461566 8.60369 0.705932 8.50365 0.960735 8.50365L19.3396 8.50365L12.4319 1.6195C12.2523 1.4407 12.1519 1.19869 12.1528 0.946715C12.1537 0.694741 12.2558 0.453442 12.4367 0.275898C12.6176 0.0983567 12.8625 -0.000884567 13.1174 6.15403e-06C13.3724 0.000894967 13.6165 0.101847 13.7962 0.280648L13.7673 0.280648Z" fill="white"/>
</svg>
