<svg width="22" height="18" viewBox="0 0 22 18" fill="none" xmlns="http://www.w3.org/2000/svg">
<path fill-rule="evenodd" clip-rule="evenodd" d="M4.63604 1.22182C4.24552 0.8313 3.61235 0.8313 3.22183 1.22182C2.8313 1.61235 2.8313 2.24551 3.22183 2.63604L9.58579 9L3.22183 15.364C2.8313 15.7545 2.8313 16.3877 3.22183 16.7782C3.61235 17.1687 4.24552 17.1687 4.63604 16.7782L11 10.4142L17.364 16.7782C17.7545 17.1687 18.3877 17.1687 18.7782 16.7782C19.1687 16.3876 19.1687 15.7545 18.7782 15.364L12.4142 9L18.7782 2.63604C19.1687 2.24551 19.1687 1.61235 18.7782 1.22183C18.3877 0.831301 17.7545 0.831302 17.364 1.22183L11 7.58579L4.63604 1.22182Z" fill="white"/>
</svg>
