<svg width="19" height="25" viewBox="0 0 19 25" fill="none" xmlns="http://www.w3.org/2000/svg">
<path fill-rule="evenodd" clip-rule="evenodd" d="M9.54681 23L18.7194 13.7673V13.7962C18.8982 13.6165 18.9991 13.3724 19 13.1174C19.0009 12.8625 18.9016 12.6176 18.7241 12.4367C18.5466 12.2558 18.3053 12.1537 18.0533 12.1528C17.8013 12.1519 17.5593 12.2523 17.3805 12.4319L10.4963 19.3396V0.960735C10.4963 0.705932 10.3963 0.461567 10.2182 0.281394C10.0402 0.101221 9.79864 0 9.54681 0C9.29498 0 9.05346 0.101221 8.87539 0.281394C8.69731 0.461567 8.59727 0.705932 8.59727 0.960735V19.3396L1.71312 12.4319C1.63226 12.3212 1.52885 12.2294 1.40987 12.1627C1.2909 12.096 1.15914 12.0559 1.02353 12.0452C0.887915 12.0344 0.751606 12.0533 0.623831 12.1005C0.496056 12.1478 0.379797 12.2222 0.282926 12.3188C0.186055 12.4154 0.110834 12.532 0.0623534 12.6606C0.0138729 12.7892 -0.00673448 12.9268 0.00192688 13.0642C0.0105882 13.2015 0.0483156 13.3354 0.112555 13.4567C0.176795 13.578 0.266047 13.684 0.374269 13.7673L9.54681 23ZM0.9 23.2C0.402944 23.2 0 23.6029 0 24.1C0 24.5971 0.402944 25 0.9 25H18.1C18.5971 25 19 24.5971 19 24.1C19 23.6029 18.5971 23.2 18.1 23.2H0.9Z" fill="white"/>
</svg>
