<svg width="20" height="18" viewBox="0 0 20 18" fill="none" xmlns="http://www.w3.org/2000/svg">
<path fill-rule="evenodd" clip-rule="evenodd" d="M3 6C2.44772 6 2 5.55228 2 5L2 4H1C0.447715 4 0 3.55228 0 3C0 2.44772 0.447715 2 1 2H2V1C2 0.447715 2.44772 0 3 0C3.55228 0 4 0.447715 4 1V2H19C19.5523 2 20 2.44772 20 3C20 3.55228 19.5523 4 19 4H4V5C4 5.55228 3.55228 6 3 6ZM1 8C0.447715 8 0 8.44771 0 9C0 9.55229 0.447715 10 1 10H16V11C16 11.5523 16.4477 12 17 12C17.5523 12 18 11.5523 18 11V10H19C19.5523 10 20 9.55229 20 9C20 8.44771 19.5523 8 19 8H18V7C18 6.44772 17.5523 6 17 6C16.4477 6 16 6.44772 16 7V8H1ZM9 17C9 17.5523 9.44772 18 10 18C10.5523 18 11 17.5523 11 17V16H19C19.5523 16 20 15.5523 20 15C20 14.4477 19.5523 14 19 14H11V13C11 12.4477 10.5523 12 10 12C9.44771 12 9 12.4477 9 13V14H1C0.447715 14 0 14.4477 0 15C0 15.5523 0.447715 16 1 16H9V17Z" fill="white"/>
</svg>
