<svg width="24" height="24" viewBox="0 0 24 24" fill="none" xmlns="http://www.w3.org/2000/svg">
<path fill-rule="evenodd" clip-rule="evenodd" d="M9.16128 8.46384H13.4943V10.6222C14.1184 9.38084 15.7191 8.2655 18.1236 8.2655C22.7331 8.2655 23.8274 10.7365 23.8274 15.2702V23.6667H19.1608V16.3027C19.1608 13.7208 18.5366 12.2648 16.9476 12.2648C14.7438 12.2648 13.8279 13.834 13.8279 16.3015V23.6667H9.16128V8.46384ZM1.15911 23.4683H5.82578V8.2655H1.15911V23.4683ZM6.49428 3.30834C6.49445 3.69949 6.41688 4.08678 6.26606 4.44769C6.11525 4.8086 5.8942 5.13593 5.61578 5.41067C5.05158 5.9714 4.28789 6.28526 3.49244 6.28334C2.6984 6.2828 1.93647 5.96974 1.37144 5.41184C1.09402 5.13617 0.873727 4.80846 0.723178 4.44751C0.572628 4.08655 0.494786 3.69943 0.49411 3.30834C0.49411 2.5185 0.80911 1.7625 1.37261 1.20484C1.93714 0.646187 2.69939 0.332987 3.49361 0.333336C4.28928 0.333336 5.05228 0.647169 5.61578 1.20484C6.17811 1.7625 6.49428 2.5185 6.49428 3.30834Z" fill="white"/>
</svg>
