<svg width="22" height="16" viewBox="0 0 22 16" fill="none" xmlns="http://www.w3.org/2000/svg">
<path fill-rule="evenodd" clip-rule="evenodd" d="M18.8371 1.6H3.34222L11.477 7.0232L18.8371 1.6ZM1.6 2.36148V14C1.6 14.2209 1.77909 14.4 2 14.4H20C20.2209 14.4 20.4 14.2209 20.4 14V2.43582L11.9746 8.64404C11.7035 8.84377 11.3364 8.85241 11.0562 8.66564L1.6 2.36148ZM0 2C0 0.895431 0.895431 0 2 0H20C21.1046 0 22 0.895431 22 2V14C22 15.1046 21.1046 16 20 16H2C0.89543 16 0 15.1046 0 14V2Z" fill="white"/>
</svg>
