<svg width="27" height="22" viewBox="0 0 27 22" fill="none" xmlns="http://www.w3.org/2000/svg">
<path d="M26.4903 2.78696C25.5162 3.21863 24.4697 3.5103 23.3695 3.64213C24.5047 2.96289 25.3539 1.89384 25.7588 0.634463C24.6923 1.26795 23.5251 1.71386 22.3078 1.9528C21.4893 1.07881 20.4051 0.49951 19.2235 0.304849C18.042 0.110188 16.8293 0.311053 15.7736 0.876258C14.7179 1.44146 13.8784 2.33939 13.3853 3.43062C12.8923 4.52185 12.7733 5.74534 13.0468 6.91113C10.8858 6.80263 8.77173 6.24094 6.84183 5.26252C4.91192 4.2841 3.20931 2.91082 1.8445 1.2318C1.37783 2.0368 1.1095 2.97013 1.1095 3.96413C1.10898 4.85896 1.32934 5.74008 1.75103 6.52932C2.17271 7.31856 2.78269 7.99151 3.52683 8.48846C2.66382 8.461 1.81985 8.22781 1.06517 7.8083V7.8783C1.06508 9.13333 1.4992 10.3497 2.29388 11.3211C3.08856 12.2925 4.19483 12.959 5.425 13.2076C4.62441 13.4243 3.78506 13.4562 2.97033 13.301C3.31741 14.3808 3.99349 15.3252 4.90393 16.0017C5.81436 16.6783 6.91357 17.0532 8.04767 17.074C6.12247 18.5853 3.74487 19.4051 1.29733 19.4015C0.863778 19.4016 0.430589 19.3763 0 19.3256C2.48439 20.923 5.3764 21.7708 8.33 21.7675C18.3283 21.7675 23.7942 13.4865 23.7942 6.30446C23.7942 6.07113 23.7883 5.83546 23.7778 5.60213C24.841 4.83327 25.7587 3.88117 26.488 2.79046L26.4903 2.78696Z" fill="white"/>
</svg>
