<svg width="29" height="20" viewBox="0 0 29 20" fill="none" xmlns="http://www.w3.org/2000/svg">
<path d="M27.9077 3.59149C27.7492 3.02593 27.4403 2.5139 27.014 2.10983C26.5757 1.69333 26.0385 1.3954 25.453 1.24416C23.262 0.666659 14.484 0.666659 14.484 0.666659C10.8246 0.625024 7.16605 0.808146 3.52905 1.21499C2.9436 1.37741 2.40737 1.68199 1.96805 2.10166C1.53638 2.51699 1.22371 3.02916 1.06038 3.59033C0.668021 5.70403 0.477387 7.85023 0.491046 9.99999C0.477046 12.1478 0.667213 14.2933 1.06038 16.4097C1.22021 16.9685 1.53171 17.4783 1.96455 17.8902C2.39738 18.302 2.93638 18.5995 3.52905 18.757C5.74921 19.3333 14.484 19.3333 14.484 19.3333C18.1482 19.375 21.8114 19.1919 25.453 18.785C26.0385 18.6338 26.5757 18.3358 27.014 17.9193C27.4457 17.5075 27.7525 16.9953 27.9065 16.4377C28.3091 14.3248 28.5049 12.1777 28.491 10.0268C28.5213 7.86686 28.3258 5.70965 27.9077 3.59033V3.59149ZM11.6934 13.9947V6.00649L18.9967 10.0012L11.6934 13.9947Z" fill="white"/>
</svg>
